<?xml version="1.0" encoding="utf-8"?>
<!-- Generator: Adobe Illustrator 27.1.1, SVG Export Plug-In . SVG Version: 6.00 Build 0)  -->
<svg version="1.1" id="Layer_1" xmlns="http://www.w3.org/2000/svg" xmlns:xlink="http://www.w3.org/1999/xlink" x="0px" y="0px"
	 viewBox="0 0 28.3 28.3" style="enable-background:new 0 0 28.3 28.3;" xml:space="preserve">
<style type="text/css">
	.st0{fill:#2D54A1;}
	.st1{fill:#E30613;}
	.st2{enable-background:new    ;}
	.st3{fill:#1D1D1B;}
	.st4{fill:#D3D91F;}
</style>
<g id="BG000" xmlns:sodipodi="http://sodipodi.sourceforge.net/DTD/sodipodi-0.dtd" xmlns:inkscape="http://www.inkscape.org/namespaces/inkscape" xmlns:cc="http://creativecommons.org/ns#" xmlns:dc="http://purl.org/dc/elements/1.1/" xmlns:rdf="http://www.w3.org/1999/02/22-rdf-syntax-ns#" xmlns:svg="http://www.w3.org/2000/svg">
	<rect id="BG001" y="0" class="st0" width="28.3" height="28.3"/>
	<circle id="BG002" class="st1" cx="14.2" cy="14.2" r="12.8"/>
</g>
<g class="st2">
	<path class="st3" d="M2.6,11.1h2.6l2.7,6.6v-6.6h1.8v10.7H7.6l-3.2-7.7v7.7H2.6V11.1z"/>
	<path class="st3" d="M16.9,17.9L19,18c-0.1,1.2-0.4,2.1-1.1,2.8s-1.5,1.1-2.6,1.1c-1.3,0-2.3-0.5-3-1.5s-1-2.3-1-4
		c0-1.7,0.3-3.1,1-4c0.7-1,1.7-1.5,3-1.5c2.2,0,3.4,1.4,3.6,4.1l-2.1,0.2c-0.1-1.6-0.6-2.4-1.5-2.4c-0.5,0-0.9,0.3-1.2,0.8
		s-0.4,1.5-0.4,3c0,1.3,0.1,2.2,0.4,2.7s0.7,0.7,1.2,0.7C16.2,20,16.7,19.3,16.9,17.9z"/>
	<path class="st3" d="M25.6,17.9l2.2,0.1c-0.1,1.2-0.4,2.1-1.1,2.8s-1.5,1.1-2.6,1.1c-1.3,0-2.3-0.5-3-1.5s-1-2.3-1-4
		c0-1.7,0.3-3.1,1-4c0.7-1,1.7-1.5,3-1.5c2.2,0,3.4,1.4,3.6,4.1l-2.1,0.2c-0.1-1.6-0.6-2.4-1.5-2.4c-0.5,0-0.9,0.3-1.2,0.8
		s-0.4,1.5-0.4,3c0,1.3,0.1,2.2,0.4,2.7s0.7,0.7,1.2,0.7C24.9,20,25.4,19.3,25.6,17.9z"/>
</g>
<g class="st2">
	<path class="st4" d="M1.6,9.7h2.6L7,16.4V9.7h1.8v10.7H6.7l-3.2-7.7v7.7H1.6V9.7z"/>
	<path class="st4" d="M15.9,16.5l2.2,0.1c-0.1,1.2-0.4,2.1-1.1,2.8s-1.5,1.1-2.6,1.1c-1.3,0-2.3-0.5-3-1.5s-1-2.3-1-4
		c0-1.7,0.3-3.1,1-4c0.7-1,1.7-1.5,3-1.5c2.2,0,3.4,1.4,3.6,4.1l-2.1,0.2c-0.1-1.6-0.6-2.4-1.5-2.4c-0.5,0-0.9,0.3-1.2,0.8
		s-0.4,1.5-0.4,3c0,1.3,0.1,2.2,0.4,2.7s0.7,0.7,1.2,0.7C15.2,18.7,15.7,17.9,15.9,16.5z"/>
	<path class="st4" d="M24.6,16.5l2.2,0.1c-0.1,1.2-0.4,2.1-1.1,2.8s-1.5,1.1-2.6,1.1c-1.3,0-2.3-0.5-3-1.5s-1-2.3-1-4
		c0-1.7,0.3-3.1,1-4c0.7-1,1.7-1.5,3-1.5c2.2,0,3.4,1.4,3.6,4.1l-2.1,0.2c-0.1-1.6-0.6-2.4-1.5-2.4c-0.5,0-0.9,0.3-1.2,0.8
		s-0.4,1.5-0.4,3c0,1.3,0.1,2.2,0.4,2.7s0.7,0.7,1.2,0.7C24,18.7,24.5,17.9,24.6,16.5z"/>
</g>
</svg>
