<?xml version="1.0" encoding="utf-8"?>
<!-- Generator: Adobe Illustrator 28.2.0, SVG Export Plug-In . SVG Version: 6.00 Build 0)  -->
<svg version="1.1" id="Layer_1" xmlns="http://www.w3.org/2000/svg" xmlns:xlink="http://www.w3.org/1999/xlink" x="0px" y="0px"
	 viewBox="0 0 28.3 28.3" style="enable-background:new 0 0 28.3 28.3;" xml:space="preserve">
<style type="text/css">
	.st0{fill:#2D54A1;}
	.st1{fill:#E30613;}
	.st2{fill:#1D1D1B;stroke:#FFFFFF;stroke-width:2;stroke-linecap:round;stroke-linejoin:round;stroke-miterlimit:10;}
	.st3{fill:#FFFFFF;}
</style>
<g id="BG000" xmlns:svg="http://www.w3.org/2000/svg" xmlns:rdf="http://www.w3.org/1999/02/22-rdf-syntax-ns#" xmlns:dc="http://purl.org/dc/elements/1.1/" xmlns:sodipodi="http://sodipodi.sourceforge.net/DTD/sodipodi-0.dtd" xmlns:inkscape="http://www.inkscape.org/namespaces/inkscape" xmlns:cc="http://creativecommons.org/ns#" inkscape:export-filename="/media/home1/robert/svn/graphics/trunk/toolbar-icons/32x32/layer-vector.png" inkscape:export-xdpi="90">
	<rect id="BG001" y="0" class="st0" width="28.3" height="28.3"/>
	<circle id="BG002" class="st1" cx="14.2" cy="14.2" r="12.8"/>
</g>
<g id="FG000">
	<rect x="3" y="3" class="st2" width="22" height="17"/>
	<g>
		<path class="st3" d="M9.7,5.9c0,0.1,0,0.2,0,0.2c0,0.1-0.1,0.1-0.1,0.2S9.3,6.4,9.3,6.5S9,6.5,8.9,6.5H8.7v0.7H8.4V5.3H9
			c0.1,0,0.2,0,0.3,0s0.2,0.1,0.2,0.1c0.1,0,0.1,0.1,0.2,0.2S9.7,5.8,9.7,5.9z M9.4,5.9c0-0.1,0-0.2-0.1-0.3
			C9.2,5.5,9.1,5.5,8.9,5.5H8.7v0.8h0.2c0.2,0,0.3,0,0.4-0.1C9.4,6.1,9.4,6,9.4,5.9z"/>
		<path class="st3" d="M11.4,5.7L10.9,7c-0.1,0.1-0.1,0.2-0.2,0.3s-0.1,0.2-0.2,0.2c-0.1,0.1-0.1,0.1-0.2,0.1s-0.2,0-0.3,0
			c0,0,0,0-0.1,0s0,0-0.1,0V7.6c0,0,0,0,0.1,0s0.1,0,0.1,0c0,0,0.1,0,0.1,0s0.1,0,0.1-0.1c0,0,0.1-0.1,0.1-0.1s0.1-0.1,0.1-0.2
			L9.9,5.7h0.3l0.4,1l0.1,0.2l0.1-0.2l0.3-1H11.4z"/>
		<path class="st3" d="M12.9,7.2c-0.1,0-0.1,0-0.2,0s-0.1,0-0.2,0c-0.2,0-0.3,0-0.4-0.1C12,7,12,6.9,12,6.7V5.9h-0.4V5.7H12V5.3
			l0.3-0.1v0.5h0.7v0.2h-0.7v0.7c0,0.1,0,0.2,0.1,0.2C12.4,7,12.5,7,12.6,7c0,0,0.1,0,0.2,0c0.1,0,0.1,0,0.2,0V7.2z"/>
		<path class="st3" d="M14.5,7.2h-0.3V6.3c0-0.1,0-0.2-0.1-0.3c0-0.1-0.1-0.1-0.2-0.1c0,0-0.1,0-0.1,0c0,0-0.1,0-0.1,0
			S13.8,6,13.7,6.1s-0.1,0.1-0.1,0.1v1h-0.3V5.1h0.3v0.6l0,0.2c0,0,0.1-0.1,0.1-0.1c0,0,0.1-0.1,0.1-0.1s0.1,0,0.1,0s0.1,0,0.1,0
			c0.1,0,0.3,0,0.3,0.1c0.1,0.1,0.1,0.2,0.1,0.4V7.2z"/>
		<path class="st3" d="M16.3,6.4c0,0.1,0,0.2,0,0.3c0,0.1-0.1,0.2-0.1,0.2C16,7.1,16,7.1,15.9,7.2c-0.1,0-0.2,0.1-0.3,0.1
			c-0.1,0-0.2,0-0.3,0c-0.1,0-0.2-0.1-0.2-0.1C15,7,15,6.9,15,6.8c0-0.1,0-0.2,0-0.3c0-0.1,0-0.2,0-0.3S15,6,15.1,5.9
			s0.1-0.1,0.2-0.2s0.2-0.1,0.3-0.1c0.1,0,0.2,0,0.3,0c0.1,0,0.2,0.1,0.2,0.1C16.2,6,16.2,6,16.2,6.1C16.3,6.2,16.3,6.3,16.3,6.4z
			 M16,6.5c0-0.1,0-0.2,0-0.2c0-0.1,0-0.1-0.1-0.2c0,0-0.1-0.1-0.1-0.1c-0.1,0-0.1,0-0.2,0c-0.1,0-0.1,0-0.2,0
			c-0.1,0-0.1,0.1-0.1,0.1c0,0-0.1,0.1-0.1,0.2c0,0.1,0,0.1,0,0.2c0,0.1,0,0.2,0,0.2c0,0.1,0,0.1,0.1,0.2c0,0,0.1,0.1,0.1,0.1
			c0.1,0,0.1,0,0.2,0c0.1,0,0.1,0,0.2,0c0.1,0,0.1-0.1,0.1-0.1c0,0,0.1-0.1,0.1-0.2C16,6.6,16,6.5,16,6.5z"/>
		<path class="st3" d="M16.7,5.7h0.2l0,0.2c0-0.1,0.1-0.1,0.1-0.1c0,0,0.1-0.1,0.1-0.1c0,0,0.1,0,0.1,0s0.1,0,0.1,0
			c0.2,0,0.3,0,0.3,0.1c0.1,0.1,0.1,0.2,0.1,0.4v1h-0.3V6.3c0-0.1,0-0.2-0.1-0.3s-0.1-0.1-0.2-0.1c0,0-0.1,0-0.1,0c0,0-0.1,0-0.1,0
			S17.1,6,17,6.1c0,0-0.1,0.1-0.1,0.1v1h-0.3V5.7z"/>
	</g>
</g>
</svg>
